# xmcd CD database file generated by Grip 2.98.4
# 
# Track frame offsets:
#       150
#       13010
#       24035
#       38488
#       51233
#       71633
#       84273
#       96368
#       109018
#       120368
#       132070
#       144518
#       159603
# 
# Disc length: 2476 secs
# 
# Revision: 4
# Processed by: cddbd v1.4PL0 Copyright (c) Steve Scherf et al.
# Submitted via: Grip 2.98.4
# 
DISCID=9a09aa0d
DTITLE=Mike Ness - Under the Influences (Vol. One)
DYEAR=1999
DGENRE=Punk
TTITLE0=All I Can Do Is Cry
TTITLE1=Gamblin' Man
TTITLE2=Let the Jukebox Keep On Playing
TTITLE3=I Fought the Law
TTITLE4=Big Iron
TTITLE5=One More Time
TTITLE6=Six More Miles
TTITLE7=A Thief in the Night
TTITLE8=Once a Day
TTITLE9=Funnel of Love
TTITLE10=House of Gold
TTITLE11=Wildwood Flower
TTITLE12=Ball and Chain (Honky Tonk)
EXTD=
EXTT0=
EXTT1=
EXTT2=
EXTT3=
EXTT4=
EXTT5=
EXTT6=
EXTT7=
EXTT8=
EXTT9=
EXTT10=
EXTT11=
EXTT12=
PLAYORDER=
